REM DIRINDEX 1\2,1\3,1\4,1\5
REM DIRNAME "folder01","folder02","folder03","folder04","folder05"
TITLE ""
FILE "1Q_t_0010-0019.mp3" MP3
  TRACK 01 AUDIO
    TITLE "3:cjc172_0937"
    INDEX 01 00:00:00
  TRACK 02 AUDIO
    TITLE "0:"
    INDEX 01 00:01:22
  TRACK 03 AUDIO
    TITLE "4:cjc172_0938"
    INDEX 01 00:01:51
  TRACK 04 AUDIO
    TITLE "0:"
    INDEX 01 00:06:19
  TRACK 05 AUDIO
    TITLE "5:cjc172_0939"
    INDEX 01 00:06:46
  TRACK 06 AUDIO
    TITLE "0:"
    INDEX 01 00:12:23
  TRACK 07 AUDIO
    TITLE "3:cjc172_0940"
    INDEX 01 00:13:05
  TRACK 08 AUDIO
    TITLE "0:"
    INDEX 01 00:14:14
  TRACK 09 AUDIO
    TITLE "4:cjc172_0941"
    INDEX 01 00:14:44
  TRACK 10 AUDIO
    TITLE "0:"
    INDEX 01 00:17:09
  TRACK 11 AUDIO
    TITLE "5:cjc172_0942"
    INDEX 01 00:17:36
  TRACK 12 AUDIO
    TITLE "0:"
    INDEX 01 00:22:02
  TRACK 13 AUDIO
    TITLE "3:cjc172_0943"
    INDEX 01 00:22:57
  TRACK 14 AUDIO
    TITLE "0:"
    INDEX 01 00:24:25
  TRACK 15 AUDIO
    TITLE "4:cjc172_0944"
    INDEX 01 00:24:50
  TRACK 16 AUDIO
    TITLE "0:"
    INDEX 01 00:28:75
  TRACK 17 AUDIO
    TITLE "5:cjc172_0945"
    INDEX 01 00:29:28
  TRACK 18 AUDIO
    TITLE "0:"
    INDEX 01 00:36:36
  TRACK 19 AUDIO
    TITLE "3:cjc172_0946"
    INDEX 01 00:37:13
  TRACK 20 AUDIO
    TITLE "0:"
    INDEX 01 00:38:23
  TRACK 21 AUDIO
    TITLE "4:cjc172_0947"
    INDEX 01 00:38:50
  TRACK 22 AUDIO
    TITLE "0:"
    INDEX 01 00:40:04
  TRACK 23 AUDIO
    TITLE "5:cjc172_0948"
    INDEX 01 00:40:31
  TRACK 24 AUDIO
    TITLE "0:"
    INDEX 01 00:45:48
  TRACK 25 AUDIO
    TITLE "3:cjc172_0949"
    INDEX 01 00:46:28
  TRACK 26 AUDIO
    TITLE "0:"
    INDEX 01 00:47:29
  TRACK 27 AUDIO
    TITLE "4:cjc172_0950"
    INDEX 01 00:47:59
  TRACK 28 AUDIO
    TITLE "0:"
    INDEX 01 00:51:41
  TRACK 29 AUDIO
    TITLE "5:cjc172_0951"
    INDEX 01 00:51:66
  TRACK 30 AUDIO
    TITLE "0:"
    INDEX 01 00:58:18
  TRACK 31 AUDIO
    TITLE "3:cjc172_0952"
    INDEX 01 00:58:70
  TRACK 32 AUDIO
    TITLE "0:"
    INDEX 01 01:00:20
  TRACK 33 AUDIO
    TITLE "4:cjc172_0953"
    INDEX 01 01:00:48
  TRACK 34 AUDIO
    TITLE "0:"
    INDEX 01 01:03:48
  TRACK 35 AUDIO
    TITLE "5:cjc172_0954"
    INDEX 01 01:04:01
  TRACK 36 AUDIO
    TITLE "0:"
    INDEX 01 01:08:12
  TRACK 37 AUDIO
    TITLE "3:cjc172_0955"
    INDEX 01 01:08:67
  TRACK 38 AUDIO
    TITLE "0:"
    INDEX 01 01:10:11
  TRACK 39 AUDIO
    TITLE "4:cjc172_0956"
    INDEX 01 01:10:40
  TRACK 40 AUDIO
    TITLE "0:"
    INDEX 01 01:13:62
  TRACK 41 AUDIO
    TITLE "5:cjc172_0957"
    INDEX 01 01:14:15
  TRACK 42 AUDIO
    TITLE "0:"
    INDEX 01 01:20:49
  TRACK 43 AUDIO
    TITLE "3:cjc172_0958"
    INDEX 01 01:21:22
  TRACK 44 AUDIO
    TITLE "0:"
    INDEX 01 01:22:43
  TRACK 45 AUDIO
    TITLE "4:cjc172_0959"
    INDEX 01 01:22:71
  TRACK 46 AUDIO
    TITLE "0:"
    INDEX 01 01:24:70
  TRACK 47 AUDIO
    TITLE "5:cjc172_0960"
    INDEX 01 01:25:22
  TRACK 48 AUDIO
    TITLE "0:"
    INDEX 01 01:31:21
  TRACK 49 AUDIO
    TITLE "3:cjc172_0961"
    INDEX 01 01:32:03
  TRACK 50 AUDIO
    TITLE "0:"
    INDEX 01 01:33:26
  TRACK 51 AUDIO
    TITLE "4:cjc172_0962"
    INDEX 01 01:33:55
  TRACK 52 AUDIO
    TITLE "0:"
    INDEX 01 01:35:17
  TRACK 53 AUDIO
    TITLE "5:cjc172_0963"
    INDEX 01 01:35:44
  TRACK 54 AUDIO
    TITLE "0:"
    INDEX 01 01:40:08
  TRACK 55 AUDIO
    TITLE "3:cjc172_0964"
    INDEX 01 01:40:63
  TRACK 56 AUDIO
    TITLE "0:"
    INDEX 01 01:42:01
  TRACK 57 AUDIO
    TITLE "4:cjc172_0965"
    INDEX 01 01:42:31
  TRACK 58 AUDIO
    TITLE "0:"
    INDEX 01 01:45:09
  TRACK 59 AUDIO
    TITLE "5:cjc172_0966"
    INDEX 01 01:45:37
  TRACK 60 AUDIO
    TITLE "0:"
    INDEX 01 01:49:64
